<svg width="201" height="76" viewBox="0 0 201 76" fill="none" xmlns="http://www.w3.org/2000/svg">
    <g clip-path="url(#clip0_94_2)">
        <path d="M56.3586 40.0928H21.7034C17.0162 40.0928 13.2164 43.8925 13.2164 48.5797V66.6145C13.2164 71.3017 17.0162 75.1012 21.7034 75.1012H56.3586C61.0459 75.1012 64.8454 71.3017 64.8454 66.6145V48.5797C64.8454 43.8925 61.0459 40.0928 56.3586 40.0928Z" stroke="black" stroke-width="0.530436" stroke-linecap="round"/>
        <path d="M22.4105 51.0549V73.6866C22.4105 74.4678 23.0438 75.1009 23.825 75.1009H34.4337C35.2149 75.1009 35.8482 74.4678 35.8482 73.6866V51.0549C35.8482 50.2738 35.2149 49.6401 34.4337 49.6401H23.825C23.0438 49.6401 22.4105 50.2738 22.4105 51.0549Z" stroke="black" stroke-width="0.530436" stroke-linecap="round"/>
        <path d="M32.0089 62.6201H33.4487" stroke="black" stroke-width="0.530436" stroke-linecap="round"/>
        <path d="M50.17 49.6401H55.651C57.2137 49.6401 58.4801 50.907 58.4801 52.4692V54.0996M50.17 49.6401H44.6889C43.1264 49.6401 41.8599 50.907 41.8599 52.4692V56.0055V59.5417C41.8599 61.104 43.1264 62.3708 44.6889 62.3708H50.17M50.17 49.6401V62.3708M50.17 62.3708H55.651C57.2137 62.3708 58.4801 61.104 58.4801 59.5417V56.0055V54.0996M50.6318 54.0996H58.4801" stroke="black" stroke-width="0.530436" stroke-linecap="round"/>
        <path d="M44.4317 39.8975L44.2403 40.0811L44.3186 40.1627H44.4317V39.8975ZM40.5419 36.8917L40.4342 37.1341L40.5419 36.8917ZM33.6462 36.3613L33.7727 36.1282L33.6462 36.3613ZM29.4027 30.7033L29.5104 30.4609L29.4027 30.7033ZM22.6839 31.5874L22.6767 31.3223L22.6839 31.5874ZM14.7274 30.1729L14.7573 30.4364L14.7274 30.1729ZM3.76505 34.4164L3.82469 34.1579L3.76505 34.4164ZM0.582448 31.5874L0.32821 31.6629L0.582448 31.5874ZM2.35056 26.9903L2.61083 27.0413L2.35056 26.9903ZM2.35056 21.5091L2.59393 21.6145L2.35056 21.5091ZM9.77666 17.4425L9.60092 17.2438L9.77666 17.4425ZM14.7274 10.5468L14.6087 10.3096L14.7274 10.5468ZM29.4027 8.60187L29.2506 8.81913L29.4027 8.60187ZM28.5187 22.7468L28.6728 22.9626L28.5187 22.7468ZM23.3911 24.1613L23.5864 24.3407L23.3911 24.1613ZM21.623 26.9903L21.7999 27.1879L21.623 26.9903ZM18.2636 25.5758L18.4419 25.772L18.2636 25.5758ZM34.7071 33.0019L34.8004 32.7536L34.7071 33.0019ZM39.6578 33.7091L39.5418 33.4706L39.6578 33.7091ZM41.6027 27.5207L41.8176 27.6761L41.6027 27.5207ZM50.6201 23.2772L50.7963 23.079L50.6201 23.2772ZM44.9621 24.1613L44.8686 24.4095L44.9621 24.1613ZM41.0723 24.8685L41.055 24.6039L41.0723 24.8685ZM37.1824 23.2772L37.3386 23.4916L37.1824 23.2772ZM39.6578 27.5207L39.4392 27.3705L39.6578 27.5207ZM34.7071 25.5758L34.5349 25.7775L34.7071 25.5758ZM32.5853 22.2163L32.619 21.9533L32.5853 22.2163ZM52.0344 4.35839L51.8281 4.52504L52.0344 4.35839ZM53.0954 10.5468L52.8715 10.6892L53.0954 10.5468ZM62.2898 10.5468L62.3745 10.2955L62.2898 10.5468ZM52.0344 25.5758L52.1478 25.336L52.0344 25.5758ZM43.7245 27.5207L43.9207 27.6991L43.7245 27.5207ZM47.6143 32.1178L47.3982 31.9642L47.6143 32.1178ZM52.0344 27.5207L51.8027 27.6494L52.0344 27.5207ZM50.6201 31.5874L50.4532 31.7934L50.6201 31.5874ZM58.2231 28.5816L57.9885 28.4575L58.2231 28.5816ZM67.9475 12.4917L67.9733 12.7557L67.9475 12.4917ZM72.7213 29.6424L72.826 29.8862L72.7213 29.6424ZM69.5389 30.7033L69.6275 30.9534L69.5389 30.7033ZM59.6374 33.0019L59.3731 32.9828L59.6374 33.0019ZM62.9969 30.1729L63.2447 30.2681L62.9969 30.1729ZM56.6316 33.0019L56.7513 33.2384L56.6316 33.0019ZM49.5591 34.4164L49.3367 34.272L49.5591 34.4164ZM49.5591 39.8975V40.1627H49.9212L49.8122 39.8176L49.5591 39.8975ZM38.9506 0.645352L38.9285 0.381049L38.9506 0.645352ZM47.6143 26.9903L47.6731 27.2489L47.6143 26.9903ZM52.0344 16.7352L51.8105 16.5932L51.7774 16.6452L51.7711 16.7065L52.0344 16.7352ZM22.6839 10.0164L22.6343 10.2769L22.6787 10.2854L22.7233 10.2786L22.6839 10.0164ZM44.4317 39.8975C44.6231 39.7139 44.6231 39.7139 44.6231 39.7139C44.6231 39.7138 44.623 39.7138 44.623 39.7138C44.6229 39.7137 44.6227 39.7136 44.6226 39.7134C44.6223 39.713 44.6218 39.7126 44.6213 39.712C44.6201 39.7108 44.6184 39.7091 44.6163 39.7068C44.612 39.7024 44.6056 39.6958 44.5973 39.6873C44.5808 39.6703 44.5564 39.6454 44.525 39.6137C44.4621 39.5502 44.3706 39.4589 44.2554 39.3471C44.0252 39.1236 43.6998 38.8175 43.3186 38.4865C42.5622 37.8296 41.565 37.0558 40.6495 36.6493L40.4342 37.1341C41.2734 37.5067 42.221 38.2357 42.9709 38.887C43.3429 39.2101 43.661 39.5093 43.8859 39.7277C43.9983 39.8368 44.0874 39.9257 44.1481 39.9869C44.1785 40.0176 44.2017 40.0413 44.2173 40.0574C44.2251 40.0653 44.2309 40.0714 44.2348 40.0754C44.2367 40.0774 44.2381 40.0789 44.2391 40.0798C44.2395 40.0803 44.2398 40.0806 44.24 40.0809C44.2402 40.081 44.2402 40.081 44.2403 40.0811C44.2403 40.0811 44.2403 40.0811 44.2403 40.0811C44.2403 40.0811 44.2403 40.0811 44.4317 39.8975ZM40.6495 36.6493C39.3346 36.0655 38.1279 36.2722 37.0198 36.436C35.9 36.6016 34.8747 36.7259 33.7727 36.1282L33.5198 36.5944C34.7918 37.2844 35.9801 37.1259 37.0974 36.9608C38.2266 36.7938 39.2806 36.6219 40.4342 37.1341L40.6495 36.6493ZM33.7727 36.1282C32.667 35.5285 32.4271 34.5833 32.059 33.4846C31.8779 32.9443 31.6643 32.372 31.2819 31.8435C30.8959 31.3101 30.3469 30.8327 29.5104 30.4609L29.295 30.9457C30.0498 31.2811 30.5235 31.7001 30.8522 32.1544C31.1844 32.6136 31.3775 33.1205 31.556 33.6532C31.9071 34.7008 32.1976 35.8773 33.5198 36.5944L33.7727 36.1282ZM29.5104 30.4609C28.211 29.8834 27.1142 30.1098 26.0452 30.4637C24.9663 30.8207 23.9483 31.2879 22.6767 31.3223L22.6911 31.8525C24.065 31.8153 25.1973 31.303 26.2118 30.9672C27.2362 30.6282 28.1761 30.4484 29.295 30.9457L29.5104 30.4609ZM22.6767 31.3223C21.0671 31.3658 19.9495 30.9362 18.7869 30.523C17.6193 30.108 16.4155 29.7143 14.6975 29.9094L14.7573 30.4364C16.3503 30.2555 17.4591 30.614 18.6093 31.0228C19.7645 31.4334 20.9696 31.899 22.6911 31.8525L22.6767 31.3223ZM14.6975 29.9094C12.3922 30.1711 10.18 31.3945 8.29583 32.4534C7.34436 32.988 6.48138 33.4785 5.7131 33.8046C4.93791 34.1336 4.3129 34.2706 3.82469 34.1579L3.70542 34.6748C4.36649 34.8274 5.12558 34.6302 5.92033 34.2929C6.72199 33.9526 7.61472 33.4446 8.55572 32.9158C10.4565 31.8476 12.5762 30.6841 14.7573 30.4364L14.6975 29.9094ZM3.82469 34.1579C2.94193 33.9542 2.31121 33.6604 1.84647 33.2447C1.38364 32.8306 1.06374 32.2762 0.836681 31.5118L0.32821 31.6629C0.57469 32.4926 0.937176 33.1429 1.49281 33.64C2.04653 34.1353 2.77035 34.459 3.70542 34.6748L3.82469 34.1579ZM0.836681 31.5118C0.598572 30.7103 0.887603 30.1223 1.34172 29.4543C1.7859 28.801 2.41251 28.0534 2.61083 27.0413L2.09029 26.9393C1.91873 27.8148 1.38741 28.4437 0.90307 29.1561C0.428668 29.8538 0.0185859 30.6206 0.32821 31.6629L0.836681 31.5118ZM2.61083 27.0413C2.82838 25.9311 2.6015 24.9962 2.44677 24.1508C2.29101 23.2997 2.20132 22.5209 2.59393 21.6145L2.10719 21.4037C1.64905 22.4614 1.76517 23.373 1.925 24.2463C2.08586 25.1252 2.28437 25.9489 2.09029 26.9393L2.61083 27.0413ZM2.59393 21.6145C3.19876 20.2181 4.32487 19.7764 5.69519 19.4161C7.04554 19.061 8.65466 18.7891 9.9524 17.6411L9.60092 17.2438C8.42212 18.2866 6.97536 18.531 5.56028 18.903C4.16522 19.2699 2.81652 19.766 2.10719 21.4037L2.59393 21.6145ZM9.9524 17.6411C11.247 16.4958 11.7657 15.0785 12.3139 13.8338C12.8661 12.5799 13.4515 11.4813 14.846 10.784L14.6087 10.3096C13.0382 11.0949 12.3896 12.3458 11.8285 13.62C11.2633 14.9032 10.7893 16.1925 9.60092 17.2438L9.9524 17.6411ZM28.3645 22.531C27.5102 23.1412 26.7099 23.0812 25.8444 23.0548C25.4181 23.0418 24.967 23.0379 24.5187 23.1562C24.0617 23.2768 23.6195 23.5207 23.1958 23.9819L23.5864 24.3407C23.9424 23.9533 24.2965 23.7635 24.6541 23.6691C25.0203 23.5724 25.402 23.572 25.8282 23.585C26.6679 23.6106 27.6518 23.6919 28.6728 22.9626L28.3645 22.531ZM23.1958 23.9819C22.6873 24.5354 22.4906 25.0515 22.2985 25.5099C22.1095 25.9612 21.9225 26.3666 21.4462 26.7926L21.7999 27.1879C22.3656 26.6818 22.5898 26.1876 22.7878 25.7148C22.9828 25.2491 23.1491 24.8168 23.5864 24.3407L23.1958 23.9819ZM21.4462 26.7926C21.3352 26.8919 21.2543 26.9422 21.2006 26.9645C21.1497 26.9855 21.1425 26.974 21.1564 26.9791C21.1682 26.9834 21.1561 26.9858 21.1312 26.9419C21.1058 26.8971 21.0789 26.8241 21.0558 26.7154C20.96 26.2658 20.9814 25.4979 21.0061 24.6407C21.0302 23.8105 21.0563 22.9078 20.9462 22.2594C20.8921 21.9411 20.7976 21.6311 20.6099 21.4272C20.5102 21.3188 20.3826 21.2389 20.2271 21.209C20.0747 21.1798 19.9177 21.2028 19.7625 21.2605L19.9473 21.7577C20.0378 21.7241 20.0942 21.7237 20.1271 21.73C20.1569 21.7357 20.1864 21.7503 20.2196 21.7864C20.2978 21.8713 20.3725 22.05 20.4232 22.3483C20.5226 22.9331 20.5005 23.7749 20.4759 24.6254C20.4521 25.449 20.4246 26.2979 20.537 26.8259C20.5659 26.9616 20.6071 27.093 20.6699 27.2037C20.7332 27.3153 20.8294 27.4241 20.9736 27.4771C21.12 27.5308 21.2693 27.5099 21.4031 27.4547C21.5339 27.4006 21.6659 27.3078 21.7999 27.1879L21.4462 26.7926ZM19.7625 21.2605C19.2158 21.4637 18.9017 21.768 18.7486 22.1574C18.6044 22.5241 18.6188 22.9338 18.6393 23.3024C18.6824 24.0742 18.7541 24.7717 18.0852 25.3795L18.4419 25.772C19.3248 24.9698 19.2094 23.9992 19.169 23.2729C19.1477 22.8924 19.1463 22.5955 19.2422 22.3515C19.3292 22.1302 19.5114 21.9198 19.9473 21.7577L19.7625 21.2605ZM18.0852 25.3795C17.7524 25.682 17.4138 25.8218 17.0731 25.8503C16.7278 25.8791 16.3587 25.7952 15.9676 25.6135C15.1781 25.2468 14.3554 24.509 13.5612 23.6652C12.7636 22.8178 12.0413 21.9168 11.4043 21.2018C11.0926 20.8519 10.8009 20.5466 10.5425 20.3353C10.4133 20.2297 10.2831 20.1397 10.155 20.0802C10.0288 20.0216 9.87969 19.981 9.72561 20.0112L9.82766 20.5317C9.82835 20.5316 9.85764 20.527 9.93152 20.5613C10.0034 20.5947 10.0948 20.6544 10.2067 20.7459C10.4305 20.9289 10.6989 21.2073 11.0083 21.5546C11.6136 22.2341 12.3775 23.1816 13.1749 24.0287C13.9757 24.8795 14.8566 25.6823 15.7441 26.0946C16.1915 26.3024 16.6542 26.4175 17.1172 26.3788C17.5846 26.3399 18.0307 26.1458 18.4419 25.772L18.0852 25.3795ZM9.72561 20.0112C9.57289 20.0411 9.4444 20.1317 9.37739 20.2809C9.31845 20.4123 9.32142 20.5579 9.34278 20.6854C9.3859 20.9422 9.52831 21.2621 9.72789 21.6098C10.1329 22.3153 10.8312 23.233 11.7003 24.1784C13.4327 26.0629 15.9028 28.1221 18.1845 28.8347L18.3427 28.3284C16.1967 27.6582 13.8045 25.6837 12.0908 23.8195C11.237 22.8906 10.5664 22.0052 10.188 21.3458C9.99581 21.0111 9.89288 20.7582 9.86592 20.5976C9.85229 20.5163 9.86407 20.4921 9.86129 20.4981C9.85054 20.5222 9.82572 20.5321 9.82766 20.5317L9.72561 20.0112ZM18.1845 28.8347C20.464 29.5467 22.6406 29.2699 24.6577 28.8968C26.6979 28.5195 28.5358 28.0567 30.2475 28.3134L30.3261 27.7889C28.5015 27.5151 26.5417 28.009 24.5613 28.3752C22.5578 28.7457 20.4909 28.9994 18.3427 28.3284L18.1845 28.8347ZM30.2475 28.3134C30.7413 28.3875 31.0569 28.6231 31.3081 28.9668C31.5711 29.3269 31.7554 29.7925 31.981 30.332C32.4234 31.3902 32.9902 32.6396 34.6137 33.2501L34.8004 32.7536C33.4021 32.2278 32.9081 31.1744 32.4704 30.1274C32.2559 29.6144 32.0454 29.0769 31.7364 28.6539C31.4154 28.2146 30.9816 27.8872 30.3261 27.7889L30.2475 28.3134ZM34.6137 33.2501C35.5163 33.5895 36.4149 33.9531 37.2666 34.1377C38.1253 34.3237 38.9731 34.3371 39.7738 33.9476L39.5418 33.4706C38.8887 33.7883 38.1751 33.7918 37.379 33.6193C36.5758 33.4452 35.7259 33.1016 34.8004 32.7536L34.6137 33.2501ZM39.7738 33.9476C40.408 33.6391 40.7674 33.1876 40.9629 32.6547C41.153 32.1364 41.1849 31.5494 41.1929 30.9727C41.2093 29.781 41.1363 28.618 41.8176 27.6761L41.3878 27.3652C40.5843 28.476 40.6779 29.853 40.6625 30.9654C40.6546 31.5407 40.621 32.0466 40.4649 32.4719C40.3143 32.8825 40.0466 33.2251 39.5418 33.4706L39.7738 33.9476ZM41.8176 27.6761C42.3159 26.9873 43.1932 26.4585 44.2501 26.0363C45.3013 25.6163 46.4926 25.3161 47.5829 25.0618C48.658 24.8111 49.6594 24.6006 50.2823 24.3626C50.441 24.302 50.5851 24.2362 50.7043 24.1624C50.8211 24.0904 50.933 23.9992 51.0056 23.8799C51.0849 23.7491 51.1073 23.5972 51.0571 23.443C51.0114 23.3025 50.9131 23.1826 50.7963 23.079L50.4439 23.4754C50.5262 23.5487 50.5481 23.5931 50.5529 23.607C50.5529 23.6071 50.5554 23.5995 50.552 23.6052C50.5413 23.6223 50.5087 23.6599 50.4254 23.7112C50.3451 23.7608 50.2351 23.8128 50.0935 23.867C49.5144 24.0882 48.569 24.2872 47.4624 24.5452C46.3709 24.7997 45.1452 25.1075 44.0533 25.5437C42.9673 25.9776 41.9754 26.553 41.3878 27.3652L41.8176 27.6761ZM50.7963 23.079C50.3437 22.6764 49.8322 22.5995 49.3192 22.685C48.8228 22.7678 48.3082 23.0054 47.8188 23.2431C47.3155 23.4876 46.833 23.735 46.3565 23.8822C45.8848 24.0279 45.4543 24.0633 45.0557 23.9131L44.8686 24.4095C45.4207 24.6175 45.9829 24.5528 46.5131 24.389C47.0385 24.2267 47.5668 23.9552 48.0505 23.7203C48.548 23.4786 48.9965 23.2766 49.4063 23.2082C49.7996 23.1426 50.1373 23.203 50.4439 23.4754L50.7963 23.079ZM45.0557 23.9131C44.3897 23.6621 44.0404 23.113 43.8751 22.3552C43.7077 21.5881 43.7405 20.6511 43.8138 19.7055C43.8857 18.7799 43.9987 17.8309 43.968 17.1075C43.9526 16.7447 43.9007 16.4038 43.7696 16.1352C43.6312 15.8514 43.4012 15.6453 43.0601 15.5894L42.9743 16.1128C43.1195 16.1366 43.2175 16.2132 43.2929 16.3678C43.3757 16.5375 43.4236 16.7906 43.438 17.13C43.467 17.811 43.3599 18.6992 43.285 19.6644C43.2117 20.6096 43.1711 21.617 43.3568 22.4683C43.5447 23.3292 43.9751 24.0728 44.8686 24.4095L45.0557 23.9131ZM43.0601 15.5894C42.8865 15.561 42.7201 15.5846 42.5708 15.6649C42.4252 15.743 42.3144 15.8647 42.2293 16.0026C42.0632 16.2718 41.966 16.6503 41.904 17.0689C41.7789 17.9133 41.7795 19.0612 41.7795 20.1927C41.7795 21.3384 41.779 22.4707 41.6605 23.3247C41.601 23.7534 41.5149 24.0865 41.3991 24.3093C41.2858 24.5275 41.1701 24.5964 41.055 24.6039L41.0896 25.1332C41.4606 25.1089 41.7097 24.8622 41.8699 24.5538C42.0277 24.2499 42.1238 23.8452 42.1859 23.3976C42.3105 22.4992 42.3099 21.3253 42.3099 20.1927C42.3099 19.0459 42.3106 17.9435 42.4286 17.1467C42.4882 16.7449 42.5733 16.4552 42.6807 16.2812C42.7324 16.1975 42.7811 16.154 42.8217 16.1322C42.8584 16.1125 42.9048 16.1015 42.9743 16.1128L43.0601 15.5894ZM41.055 24.6039C40.7236 24.6255 40.4157 24.509 40.1047 24.3067C39.788 24.1008 39.4973 23.8267 39.1863 23.5518C38.8894 23.2894 38.564 23.0167 38.2128 22.8848C38.0311 22.8166 37.8359 22.7831 37.6297 22.8094C37.4232 22.8357 37.2223 22.92 37.0263 23.0629L37.3386 23.4916C37.4742 23.3928 37.5924 23.3489 37.6968 23.3356C37.8016 23.3222 37.9091 23.3374 38.0263 23.3814C38.2729 23.474 38.5299 23.6796 38.835 23.9493C39.1259 24.2064 39.4566 24.518 39.8155 24.7514C40.1801 24.9885 40.6021 25.165 41.0896 25.1332L41.055 24.6039ZM37.0263 23.0629C36.7936 23.2324 36.6416 23.4436 36.6236 23.7006C36.6065 23.946 36.7171 24.168 36.8554 24.3532C37.1274 24.7177 37.625 25.0902 38.0855 25.4408C38.5678 25.8079 39.026 26.1619 39.3031 26.5136C39.4397 26.6871 39.5157 26.8401 39.5383 26.9746C39.5592 27.0992 39.5379 27.2269 39.4392 27.3705L39.8763 27.6709C40.0494 27.4192 40.1061 27.1532 40.0614 26.8869C40.0184 26.6306 39.8854 26.3957 39.7198 26.1854C39.3924 25.7698 38.873 25.3736 38.4068 25.0188C37.9188 24.6473 37.4969 24.326 37.2804 24.0359C37.1744 23.8939 37.1485 23.7985 37.1528 23.7376C37.1562 23.6884 37.1837 23.6045 37.3386 23.4916L37.0263 23.0629ZM39.4392 27.3705C39.2227 27.6856 38.923 27.7857 38.536 27.7375C38.1303 27.687 37.6522 27.4724 37.1593 27.1698C36.1756 26.5662 35.2477 25.6884 34.8792 25.374L34.5349 25.7775C34.8737 26.0665 35.8517 26.9897 36.8818 27.6219C37.3957 27.9373 37.9516 28.1993 38.4705 28.2639C39.0079 28.3308 39.5234 28.1844 39.8763 27.6709L39.4392 27.3705ZM34.8792 25.374C34.3036 24.883 34.2144 24.2071 34.0549 23.499C33.9792 23.1625 33.8819 22.8046 33.6687 22.5177C33.4436 22.2149 33.1098 22.0161 32.619 21.9533L32.5517 22.4794C32.9191 22.5264 33.115 22.662 33.2429 22.8342C33.3828 23.0223 33.4619 23.28 33.5374 23.6155C33.6806 24.2515 33.7941 25.1456 34.5349 25.7775L34.8792 25.374ZM51.8281 4.52504C52.5245 5.38728 52.4773 6.31407 52.3848 7.36905C52.2943 8.40257 52.1575 9.56691 52.8715 10.6892L53.3192 10.4044C52.7172 9.45804 52.8199 8.48195 52.9134 7.41529C53.0048 6.37009 53.0852 5.23699 52.2408 4.19175L51.8281 4.52504ZM52.8715 10.6892C53.2511 11.2855 53.8872 11.4719 54.5914 11.4769C55.2908 11.4818 56.124 11.3095 56.9849 11.12C57.858 10.928 58.772 10.7151 59.6734 10.6169C60.5737 10.5189 61.4371 10.5387 62.2046 10.7981L62.3745 10.2955C61.5038 10.0013 60.5533 9.98755 59.6159 10.0896C58.6796 10.1916 57.732 10.4125 56.8711 10.602C55.9979 10.7941 55.2241 10.9508 54.5953 10.9464C53.9714 10.942 53.5587 10.7805 53.3192 10.4044L52.8715 10.6892ZM43.5282 27.3423C42.9023 28.0308 42.6291 28.9872 42.5754 29.9859C42.5216 30.9877 42.6867 32.0613 42.9678 33.0204C43.2483 33.9773 43.6504 34.8409 44.086 35.4165C44.3024 35.7024 44.5414 35.9366 44.7956 36.0659C45.0607 36.2008 45.3584 36.2264 45.6325 36.0561L45.3526 35.6056C45.2721 35.6556 45.1773 35.665 45.0361 35.5932C44.8839 35.5157 44.7028 35.3525 44.5089 35.0964C44.1241 34.588 43.7458 33.7888 43.4768 32.8712C43.2085 31.9558 43.0552 30.9433 43.1051 30.0144C43.1552 29.0824 43.4078 28.2634 43.9207 27.6991L43.5282 27.3423ZM45.6325 36.0561C46.4173 35.5688 46.8414 34.7587 47.1332 34.0213C47.2783 33.6544 47.3993 33.2812 47.5081 32.9785C47.6218 32.6622 47.7217 32.4246 47.8305 32.2715L47.3982 31.9642C47.2418 32.1841 47.1211 32.487 47.009 32.7991C46.8919 33.1249 46.7815 33.4682 46.64 33.8261C46.3581 34.5384 45.9866 35.2118 45.3526 35.6056L45.6325 36.0561ZM47.8305 32.2715C48.1947 31.7592 48.6064 31.1235 49.0248 30.4905C49.4457 29.8538 49.8745 29.2173 50.2814 28.6896C50.6946 28.1536 51.0615 27.7614 51.3535 27.5833C51.4991 27.4949 51.5881 27.4828 51.6358 27.4906C51.6699 27.4962 51.7307 27.5193 51.8027 27.6494L52.2665 27.3921C52.1424 27.1685 51.9633 27.0067 51.7215 26.9671C51.4932 26.9299 51.2713 27.0126 51.0781 27.1303C50.6931 27.3645 50.2746 27.8293 49.8614 28.3657C49.4414 28.9104 49.0029 29.5615 48.5822 30.198C48.159 30.8383 47.7555 31.4615 47.3982 31.9642L47.8305 32.2715ZM51.8027 27.6494C51.7701 27.5909 51.8125 27.5726 51.7589 27.6857C51.7151 27.7781 51.6343 27.9007 51.5195 28.0555C51.4061 28.2083 51.2708 28.3773 51.1233 28.5644C50.9773 28.7494 50.8216 28.9492 50.6746 29.1553C50.385 29.5612 50.1076 30.0196 50.0079 30.4704C49.9572 30.7001 49.9504 30.9387 50.02 31.171C50.0906 31.4058 50.2337 31.6156 50.4532 31.7934L50.787 31.3813C50.6415 31.2634 50.5646 31.1409 50.5281 31.0185C50.4906 30.8936 50.4897 30.7501 50.5262 30.5847C50.6011 30.2449 50.8235 29.8601 51.1063 29.4634C51.2455 29.2683 51.3944 29.077 51.5399 28.8929C51.6835 28.7108 51.8261 28.5326 51.9453 28.3716C52.0636 28.2127 52.1707 28.0552 52.2383 27.9127C52.2957 27.7909 52.3726 27.5831 52.2665 27.3921L51.8027 27.6494ZM50.4532 31.7934C50.8732 32.1341 51.4961 32.2823 52.1785 32.2894C52.8681 32.2966 53.6551 32.1602 54.4406 31.8928C56.0072 31.3595 57.6205 30.2864 58.4576 28.7057L57.9885 28.4575C57.2341 29.8825 55.7531 30.8857 54.2697 31.3906C53.5305 31.6422 52.8038 31.7654 52.1838 31.759C51.5565 31.7525 51.0742 31.614 50.787 31.3813L50.4532 31.7934ZM67.9733 12.7557C69.7034 12.5863 71.2292 13.3519 72.4644 14.6765C73.702 16.0038 74.6325 17.8786 75.1494 19.8698C75.6663 21.8611 75.7636 23.9449 75.3596 25.6827C74.9557 27.4201 74.0612 28.7798 72.6172 29.3987L72.826 29.8862C74.4763 29.179 75.4487 27.642 75.876 25.8028C76.3033 23.964 76.1958 21.7913 75.6629 19.7366C75.1294 17.682 74.1644 15.7214 72.8523 14.3147C71.5377 12.9053 69.8596 12.038 67.9217 12.2278L67.9733 12.7557ZM72.6172 29.3987C72.0273 29.6514 71.5518 29.804 71.0661 29.9486C70.5809 30.0931 70.0772 30.2318 69.4503 30.4532L69.6275 30.9534C70.2378 30.7377 70.722 30.6045 71.2175 30.4569C71.7124 30.3096 72.2098 30.1503 72.826 29.8862L72.6172 29.3987ZM69.4503 30.4532C68.2453 30.8791 68.0468 31.9762 67.8107 32.8814C67.6881 33.354 67.5562 33.7925 67.3075 34.1665C67.0656 34.531 66.7035 34.8462 66.0956 35.0488L66.2635 35.552C66.9814 35.3126 67.4408 34.9247 67.7494 34.4601C68.0516 34.0051 68.201 33.4885 68.3242 33.015C68.5811 32.0278 68.7359 31.2683 69.6275 30.9534L69.4503 30.4532ZM66.0956 35.0488C64.805 35.479 63.1673 35.6354 61.8951 35.3339C61.2609 35.1836 60.7392 34.9246 60.3907 34.5521C60.0486 34.187 59.8539 33.6926 59.9021 33.0209L59.3731 32.9828C59.3147 33.7903 59.5527 34.4332 60.0033 34.9146C60.4467 35.3885 61.077 35.6851 61.7729 35.8501C63.1619 36.1793 64.9018 36.0059 66.2635 35.552L66.0956 35.0488ZM59.9021 33.0209C59.9367 32.5412 60.0919 32.2962 60.2842 32.1426C60.4954 31.9743 60.7825 31.8875 61.1514 31.7924C61.8591 31.6099 62.8027 31.4173 63.2447 30.2681L62.7492 30.0777C62.4173 30.942 61.7583 31.0881 61.0191 31.2788C60.6638 31.3703 60.2662 31.4787 59.9537 31.7279C59.6228 31.9918 59.4159 32.3867 59.3731 32.9828L59.9021 33.0209ZM63.2447 30.2681C63.5435 29.4899 63.7235 28.3082 63.7411 27.4343C63.7493 27.0079 63.7216 26.6052 63.6209 26.3586C63.5761 26.248 63.4676 26.0526 63.2378 26.04C63.1308 26.0341 63.0398 26.0736 62.9716 26.1196C62.904 26.1653 62.8436 26.2269 62.7896 26.2942L63.2043 26.6255C63.2388 26.5823 63.2602 26.5647 63.268 26.5595C63.2753 26.5547 63.2529 26.572 63.2086 26.5696C63.1045 26.5638 63.0972 26.4784 63.1298 26.5586C63.1848 26.6937 63.2193 26.9965 63.2106 27.4236C63.194 28.2567 63.0203 29.3735 62.7492 30.0777L63.2447 30.2681ZM62.7896 26.2942C62.6071 26.5227 62.3146 26.9532 61.9476 27.4681C61.5748 27.991 61.112 28.62 60.5708 29.2719C59.485 30.5798 58.0985 31.9616 56.5119 32.7653L56.7513 33.2384C58.4343 32.386 59.8763 30.9387 60.9791 29.6107C61.532 28.9446 62.0036 28.3039 62.3798 27.776C62.7614 27.2402 63.0334 26.8389 63.2043 26.6255L62.7896 26.2942ZM56.5119 32.7653C55.3395 33.3593 54.0512 33.1399 52.7489 33.0359C52.1152 32.9852 51.4752 32.9645 50.8892 33.1211C50.2896 33.2814 49.7567 33.6241 49.3367 34.272L49.7815 34.5607C50.1281 34.0271 50.5486 33.7612 51.026 33.6336C51.5171 33.5024 52.0782 33.5144 52.707 33.5646C53.9295 33.6623 55.4115 33.9173 56.7513 33.2384L56.5119 32.7653ZM49.3367 34.272C49.0136 34.7706 48.8603 35.385 48.8038 36.0063C48.7469 36.6299 48.7853 37.2795 48.8593 37.8638C48.9337 38.4492 49.0452 38.9761 49.1377 39.3564C49.1839 39.5468 49.2258 39.7009 49.2564 39.808C49.2715 39.8616 49.2837 39.9034 49.2924 39.932C49.2968 39.9464 49.3002 39.9574 49.3027 39.9651C49.3036 39.9689 49.3046 39.9718 49.3051 39.9739C49.3056 39.975 49.3061 39.9757 49.3061 39.9764C49.3061 39.9767 49.3061 39.9769 49.3061 39.977C49.3061 39.9771 49.3061 39.9772 49.3065 39.9773C49.3065 39.9774 49.3065 39.9774 49.5591 39.8975C49.8122 39.8176 49.8122 39.8176 49.8122 39.8177C49.8122 39.8177 49.8122 39.8177 49.8122 39.8176C49.8122 39.8176 49.8122 39.8175 49.8122 39.8174C49.8117 39.817 49.8117 39.8165 49.8117 39.8158C49.8112 39.8143 49.8103 39.8119 49.8093 39.8087C49.8073 39.8023 49.8044 39.7924 49.8005 39.7794C49.7927 39.7532 49.7811 39.714 49.7665 39.6633C49.7377 39.5618 49.6978 39.4141 49.6531 39.2309C49.564 38.8641 49.4569 38.3574 49.3854 37.797C49.3143 37.2356 49.2798 36.6271 49.3319 36.0545C49.3844 35.4798 49.5226 34.96 49.7815 34.5607L49.3367 34.272ZM49.5591 39.6323H44.4317V40.1627H49.5591V39.6323ZM38.9726 0.90965C40.2252 0.805261 42.5393 0.588697 44.999 0.963521C47.4582 1.33827 50.0307 2.29947 51.8281 4.52504L52.2408 4.19175C50.3286 1.82421 47.6092 0.824714 45.0789 0.439138C42.5491 0.0536315 40.176 0.277094 38.9285 0.381049L38.9726 0.90965ZM52.1478 25.336C51.8592 25.1995 51.5161 25.2361 51.189 25.323C50.8542 25.4121 50.477 25.5708 50.0872 25.7458C49.2905 26.1029 48.4187 26.5353 47.5555 26.7317L47.6731 27.2489C48.6022 27.0375 49.5392 26.5728 50.3042 26.2298C50.6946 26.0546 51.0362 25.9125 51.3253 25.8356C51.6222 25.7567 51.8086 25.7624 51.9215 25.8155L52.1478 25.336ZM47.5555 26.7317C46.8259 26.8977 46.112 26.8096 45.4057 26.7845C44.7313 26.7605 44.0272 26.7934 43.5282 27.3423L43.9207 27.6991C44.241 27.3468 44.708 27.2905 45.3869 27.3146C46.0338 27.3376 46.8552 27.435 47.6731 27.2489L47.5555 26.7317ZM52.2588 16.8772C53.3995 15.0782 54.3607 14.0435 55.2266 13.4854C56.0782 12.9358 56.8511 12.8395 57.6497 12.9532C58.4732 13.0704 59.303 13.4044 60.3007 13.7301C61.2838 14.0512 62.3925 14.3482 63.7041 14.3482V13.8178C62.4747 13.8178 61.4279 13.5402 60.4652 13.2259C59.5167 12.9162 58.6085 12.554 57.7247 12.4281C56.8161 12.2987 55.9113 12.4123 54.9389 13.0396C53.9792 13.6584 52.9683 14.7676 51.8105 16.5932L52.2588 16.8772ZM14.846 10.784C15.8997 10.2572 18.9673 9.5784 22.6343 10.2769L22.7335 9.75585C18.9744 9.03979 15.785 9.72149 14.6087 10.3096L14.846 10.784ZM67.9217 12.2278C67.2252 12.2959 66.6977 12.5319 66.2334 12.7977L66.4972 13.258C66.924 13.0137 67.3776 12.814 67.9733 12.7557L67.9217 12.2278ZM66.1662 13.2029C68.1626 15.4769 67.618 18.5207 65.6158 21.1386C63.617 23.7523 60.2224 25.8448 56.7372 26.1328L56.781 26.6615C60.4331 26.3596 63.9586 24.1788 66.0372 21.4609C68.1125 18.7473 68.8021 15.4014 66.5648 12.8529L66.1662 13.2029ZM56.6155 26.62C57.2074 27.0017 57.6527 27.2979 57.9019 27.5987C58.0206 27.7425 58.081 27.8715 58.097 27.9963C58.1126 28.1194 58.0892 28.2676 57.9885 28.4575L58.4576 28.7057C58.5968 28.442 58.6557 28.1839 58.6231 27.9292C58.5905 27.6761 58.4722 27.456 58.3102 27.2604C57.9972 26.8826 57.4706 26.5401 56.9027 26.1742L56.6155 26.62ZM51.9215 25.8155C53.4867 26.5556 55.1477 26.7964 56.781 26.6615L56.7372 26.1328C55.1862 26.261 53.62 26.0319 52.1478 25.336L51.9215 25.8155ZM63.7041 14.3482C64.9811 14.3482 65.7306 13.697 66.4972 13.258L66.2334 12.7977C65.3739 13.2899 64.7981 13.8178 63.7041 13.8178V14.3482ZM66.5648 12.8529C65.6576 11.8199 64.2847 10.9409 62.3745 10.2955L62.2046 10.7981C64.0525 11.4222 65.3364 12.2578 66.1662 13.2029L66.5648 12.8529ZM38.9285 0.381049C34.3058 0.766278 29.6663 4.44286 27.0397 8.65521L27.4898 8.93583C30.0628 4.80945 34.5732 1.27626 38.9726 0.90965L38.9285 0.381049ZM27.3399 9.04986C27.8385 8.9025 28.2622 8.79484 28.6017 8.75381C28.9536 8.71128 29.1508 8.74929 29.2506 8.81913L29.5548 8.38462C29.2839 8.195 28.9123 8.18196 28.538 8.22722C28.1513 8.27394 27.6914 8.39284 27.1895 8.54118L27.3399 9.04986ZM29.2506 8.81913C31.8636 10.6483 32.5274 13.0647 32.2509 15.3882C31.9722 17.7304 30.7345 19.9779 29.5423 21.3941L29.9481 21.7357C31.1883 20.2624 32.4836 17.9213 32.7776 15.4509C33.0738 12.9617 32.3501 10.3413 29.5548 8.38462L29.2506 8.81913ZM29.6562 21.8148C30.4991 22.1149 31.4615 22.34 32.5517 22.4794L32.619 21.9533C31.5607 21.8179 30.636 21.6006 29.8342 21.315L29.6562 21.8148ZM28.6728 22.9626C29.0683 22.6801 29.5084 22.258 29.9481 21.7357L29.5423 21.3941C29.1213 21.8942 28.7132 22.2819 28.3645 22.531L28.6728 22.9626ZM29.8342 21.315C26.9885 20.3018 25.6711 18.4258 25.4118 16.2193C25.1496 13.9876 25.9666 11.3787 27.4898 8.93583L27.0397 8.65521C25.4806 11.1555 24.6036 13.8864 24.885 16.2812C25.1694 18.7012 26.6333 20.7383 29.6562 21.8148L29.8342 21.315ZM27.1895 8.54118C25.9045 8.92104 24.3008 9.50472 22.6444 9.75409L22.7233 10.2786C24.428 10.022 26.0972 9.41716 27.3399 9.04986L27.1895 8.54118ZM56.9027 26.1742L56.8297 26.1272L56.5425 26.5732L56.6155 26.6201L56.9027 26.1742ZM56.8297 26.1272C55.7799 25.451 54.4926 24.619 53.5417 23.2075C52.596 21.8047 51.9668 19.8032 52.2982 16.764L51.7711 16.7065C51.428 19.8517 52.0763 21.9828 53.1017 23.504C54.1208 25.0165 55.4972 25.8997 56.5425 26.5732L56.8297 26.1272ZM56.9027 26.1742C56.8784 26.1586 56.854 26.1429 56.8297 26.1272L56.5425 26.5732C56.5669 26.5889 56.5912 26.6045 56.6155 26.62L56.9027 26.1742Z" fill="black"/>
        <path d="M84.1438 39.7388V16.6914H84.9259V39.7388H84.1438Z" fill="black"/>
        <path d="M91.1637 39.7388V16.6914H91.9463L105.691 38.314V16.6914H106.473V39.7388H105.691L91.9463 18.1441V39.7388H91.1637Z" fill="black"/>
        <path d="M112.698 39.7388V16.6914H117.251C118.89 16.6914 120.413 16.9847 121.819 17.5714C123.234 18.158 124.468 18.9775 125.521 20.0298C126.573 21.0727 127.392 22.2926 127.979 23.6894C128.575 25.0862 128.873 26.5948 128.873 28.2151C128.873 29.8447 128.579 31.3579 127.993 32.7547C127.406 34.1515 126.582 35.3761 125.521 36.4283C124.468 37.4713 123.234 38.2861 121.819 38.8728C120.413 39.4501 118.89 39.7388 117.251 39.7388H112.698ZM113.48 39.0404H117.251C118.779 39.0404 120.199 38.7657 121.512 38.2163C122.824 37.6575 123.974 36.8893 124.962 35.9115C125.958 34.9244 126.731 33.7744 127.28 32.4614C127.839 31.1484 128.119 29.7329 128.119 28.2151C128.119 26.6972 127.839 25.2864 127.28 23.9827C126.731 22.6697 125.958 21.5197 124.962 20.5326C123.974 19.5456 122.82 18.7773 121.498 18.2279C120.185 17.6692 118.769 17.3898 117.251 17.3898H113.48V39.0404Z" fill="black"/>
        <path d="M144.187 40.1859C142.575 40.1859 141.067 39.8786 139.661 39.264C138.255 38.6494 137.021 37.7973 135.959 36.7078C134.898 35.609 134.064 34.3379 133.459 32.8945C132.863 31.4418 132.565 29.8867 132.565 28.2292C132.565 26.5623 132.863 25.0072 133.459 23.5638C134.064 22.1205 134.898 20.854 135.959 19.7645C137.021 18.6657 138.255 17.809 139.661 17.1944C141.067 16.5798 142.575 16.2725 144.187 16.2725C145.798 16.2725 147.306 16.5798 148.712 17.1944C150.119 17.809 151.352 18.6657 152.414 19.7645C153.475 20.854 154.304 22.1205 154.9 23.5638C155.506 25.0072 155.808 26.5623 155.808 28.2292C155.808 29.8867 155.506 31.4418 154.9 32.8945C154.304 34.3379 153.475 35.609 152.414 36.7078C151.352 37.7973 150.119 38.6494 148.712 39.264C147.306 39.8786 145.798 40.1859 144.187 40.1859ZM144.187 39.4316C145.686 39.4316 147.087 39.143 148.391 38.5656C149.695 37.9882 150.835 37.1874 151.813 36.1631C152.8 35.1294 153.573 33.9375 154.132 32.5872C154.69 31.2277 154.97 29.775 154.97 28.2292C154.97 26.6741 154.69 25.2214 154.132 23.8711C153.573 22.5209 152.8 21.3336 151.813 20.3093C150.835 19.2756 149.695 18.4701 148.391 17.8928C147.087 17.3154 145.686 17.0268 144.187 17.0268C142.697 17.0268 141.295 17.3154 139.982 17.8928C138.679 18.4701 137.533 19.2756 136.546 20.3093C135.568 21.3336 134.8 22.5209 134.241 23.8711C133.683 25.2214 133.403 26.6741 133.403 28.2292C133.403 29.775 133.683 31.2277 134.241 32.5872C134.8 33.9375 135.568 35.1294 136.546 36.1631C137.533 37.1874 138.679 37.9882 139.982 38.5656C141.295 39.143 142.697 39.4316 144.187 39.4316Z" fill="black"/>
        <path d="M171.15 40.1859C169.539 40.1859 168.03 39.8786 166.624 39.264C165.218 38.6494 163.984 37.7973 162.922 36.7078C161.861 35.609 161.027 34.3379 160.422 32.8945C159.826 31.4418 159.528 29.8867 159.528 28.2292C159.528 26.5623 159.826 25.0072 160.422 23.5638C161.027 22.1205 161.861 20.854 162.922 19.7645C163.984 18.6657 165.218 17.809 166.624 17.1944C168.03 16.5798 169.539 16.2725 171.15 16.2725C172.76 16.2725 174.269 16.5798 175.675 17.1944C177.081 17.809 178.315 18.6657 179.376 19.7645C180.438 20.854 181.267 22.1205 181.863 23.5638C182.468 25.0072 182.771 26.5623 182.771 28.2292C182.771 29.8867 182.468 31.4418 181.863 32.8945C181.267 34.3379 180.438 35.609 179.376 36.7078C178.315 37.7973 177.081 38.6494 175.675 39.264C174.269 39.8786 172.76 40.1859 171.15 40.1859ZM171.15 39.4316C172.649 39.4316 174.05 39.143 175.354 38.5656C176.657 37.9882 177.798 37.1874 178.776 36.1631C179.763 35.1294 180.536 33.9375 181.095 32.5872C181.654 31.2277 181.933 29.775 181.933 28.2292C181.933 26.6741 181.654 25.2214 181.095 23.8711C180.536 22.5209 179.763 21.3336 178.776 20.3093C177.798 19.2756 176.657 18.4701 175.354 17.8928C174.05 17.3154 172.649 17.0268 171.15 17.0268C169.659 17.0268 168.258 17.3154 166.945 17.8928C165.641 18.4701 164.496 19.2756 163.509 20.3093C162.531 21.3336 161.763 22.5209 161.204 23.8711C160.646 25.2214 160.366 26.6741 160.366 28.2292C160.366 29.775 160.646 31.2277 161.204 32.5872C161.763 33.9375 162.531 35.1294 163.509 36.1631C164.496 37.1874 165.641 37.9882 166.945 38.5656C168.258 39.143 169.659 39.4316 171.15 39.4316Z" fill="black"/>
        <path d="M187.748 39.7388V16.6914H192.693C194.164 16.6914 195.43 16.9474 196.492 17.4596C197.553 17.9625 198.373 18.6795 198.95 19.6107C199.527 20.5419 199.816 21.6547 199.816 22.9491C199.816 24.2249 199.537 25.3423 198.978 26.3014C198.419 27.2606 197.633 28.0149 196.618 28.5643C195.602 29.1137 194.406 29.4117 193.028 29.4583L200.766 39.7388H199.761L192.022 29.4583H188.53V39.7388H187.748ZM188.53 28.704H192.693C193.987 28.704 195.114 28.4665 196.073 27.9916C197.032 27.5167 197.772 26.8509 198.294 25.9942C198.825 25.1282 199.09 24.1131 199.09 22.9491C199.09 21.2264 198.517 19.8668 197.372 18.8704C196.226 17.8647 194.667 17.3619 192.693 17.3619H188.53V28.704Z" fill="black"/>
        <path d="M84.1438 70.8578V47.8105H95.0947V48.509H84.2275L84.9259 48.09V60.214L84.2275 58.9569H94.4522V59.6553H84.2275L84.9259 58.3982V70.8578H84.1438Z" fill="black"/>
        <path d="M112.293 71.3047C110.683 71.3047 109.174 70.9971 107.768 70.3824C106.362 69.7682 105.128 68.916 104.066 67.8263C103.005 66.7274 102.171 65.4567 101.566 64.0132C100.97 62.5604 100.672 61.0055 100.672 59.3478C100.672 57.681 100.97 56.126 101.566 54.6825C102.171 53.239 103.005 51.9727 104.066 50.883C105.128 49.7845 106.362 48.9275 107.768 48.313C109.174 47.6984 110.683 47.3911 112.293 47.3911C113.904 47.3911 115.413 47.6984 116.819 48.313C118.225 48.9275 119.459 49.7845 120.521 50.883C121.582 51.9727 122.411 53.239 123.007 54.6825C123.612 56.126 123.915 57.681 123.915 59.3478C123.915 61.0055 123.612 62.5604 123.007 64.0132C122.411 65.4567 121.582 66.7274 120.521 67.8263C119.459 68.916 118.225 69.7682 116.819 70.3824C115.413 70.9971 113.904 71.3047 112.293 71.3047ZM112.293 70.5503C113.792 70.5503 115.194 70.2617 116.498 69.684C117.802 69.1068 118.942 68.3062 119.92 67.2817C120.907 66.248 121.68 65.0561 122.239 63.7061C122.798 62.3463 123.077 60.8935 123.077 59.3478C123.077 57.7929 122.798 56.3401 122.239 54.9896C121.68 53.6395 120.907 52.452 119.92 51.4281C118.942 50.3943 117.802 49.5889 116.498 49.0117C115.194 48.4341 113.792 48.1454 112.293 48.1454C110.804 48.1454 109.402 48.4341 108.089 49.0117C106.785 49.5889 105.64 50.3943 104.653 51.4281C103.675 52.452 102.907 53.6395 102.348 54.9896C101.789 56.3401 101.51 57.7929 101.51 59.3478C101.51 60.8935 101.789 62.3463 102.348 63.7061C102.907 65.0561 103.675 66.248 104.653 67.2817C105.64 68.3062 106.785 69.1068 108.089 69.684C109.402 70.2617 110.804 70.5503 112.293 70.5503Z" fill="black"/>
        <path d="M131.336 70.8578V47.8105H136.281C137.752 47.8105 139.019 48.0666 140.08 48.5788C141.142 49.0817 141.961 49.7986 142.539 50.7301C143.116 51.6611 143.405 52.7741 143.405 54.0682C143.405 55.3438 143.125 56.4617 142.567 57.4205C142.008 58.3797 141.221 59.1341 140.206 59.6836C139.191 60.233 137.995 60.5309 136.616 60.5776L144.355 70.8578H143.349L135.61 60.5776H132.119V70.8578H131.336ZM132.119 59.8232H136.281C137.575 59.8232 138.702 59.5857 139.661 59.1107C140.62 58.6357 141.361 57.97 141.882 57.1134C142.413 56.2471 142.679 55.2324 142.679 54.0682C142.679 52.3454 142.106 50.9861 140.961 49.9898C139.815 48.9838 138.255 48.4811 136.281 48.4811H132.119V59.8232Z" fill="black"/>
        <path d="M150.486 70.8578V47.8105H161.437V48.509H151.268V58.9569H161.101V59.6553H151.268V70.1594H161.437V70.8578H150.486Z" fill="black"/>
        <path d="M174.105 71.3047C172.848 71.3047 171.767 71.0949 170.864 70.6759C169.97 70.2476 169.23 69.74 168.643 69.1535C168.056 68.5573 167.609 67.9894 167.302 67.4492C167.004 66.9094 166.822 66.5274 166.757 66.304L167.372 65.9687C167.456 66.2203 167.642 66.5975 167.931 67.1002C168.219 67.5937 168.629 68.1106 169.16 68.6508C169.69 69.1813 170.361 69.6378 171.171 70.0193C171.991 70.3921 172.968 70.578 174.105 70.578C175.194 70.578 176.2 70.378 177.122 69.9775C178.043 69.5677 178.784 68.9627 179.343 68.1617C179.911 67.3513 180.195 66.3507 180.195 65.1583C180.195 64.1806 180.004 63.3566 179.622 62.686C179.249 62.0158 178.747 61.4571 178.113 61.0099C177.48 60.5538 176.777 60.1674 176.004 59.8506C175.241 59.5342 174.468 59.2456 173.686 58.9848C173.164 58.8076 172.587 58.5891 171.954 58.3282C171.32 58.0674 170.711 57.7277 170.124 57.3086C169.546 56.8804 169.067 56.3401 168.685 55.688C168.313 55.0363 168.126 54.226 168.126 53.258C168.126 52.4384 168.27 51.6748 168.559 50.9672C168.857 50.259 169.267 49.64 169.788 49.109C170.319 48.5691 170.948 48.15 171.674 47.8521C172.4 47.5448 173.197 47.3911 174.063 47.3911C175.031 47.3911 175.883 47.5634 176.619 47.908C177.364 48.2525 177.983 48.6856 178.477 49.2068C178.97 49.7286 179.329 50.2498 179.552 50.7715L178.91 51.0786C178.723 50.6036 178.407 50.1383 177.96 49.6818C177.522 49.2258 176.973 48.853 176.311 48.5645C175.65 48.2665 174.892 48.1175 174.035 48.1175C172.917 48.1175 171.968 48.3735 171.185 48.8856C170.412 49.3981 169.826 50.0498 169.425 50.8411C169.025 51.6329 168.825 52.452 168.825 53.2998C168.825 54.1097 168.988 54.7944 169.313 55.3531C169.649 55.9021 170.077 56.3635 170.599 56.7358C171.13 57.1081 171.698 57.4201 172.302 57.6717C172.908 57.9136 173.49 58.1277 174.049 58.3141C174.849 58.5842 175.65 58.8913 176.451 59.2359C177.261 59.5712 178.002 59.9903 178.672 60.493C179.352 60.987 179.897 61.6104 180.306 62.3648C180.716 63.1099 180.921 64.0273 180.921 65.1165C180.921 66.4388 180.609 67.5611 179.985 68.4829C179.361 69.4047 178.532 70.1079 177.499 70.5922C176.474 71.0672 175.343 71.3047 174.105 71.3047Z" fill="black"/>
        <path d="M192.507 70.8578V48.5928H184.796V47.8105H200.999V48.5928H193.289V70.8578H192.507Z" fill="black"/>
    </g>
    <defs>
        <clipPath id="clip0_94_2">
            <rect width="201" height="75.4358" fill="white" transform="translate(-0.000732422)"/>
        </clipPath>
    </defs>
</svg>
